<svg width="401" height="400" viewBox="0 0 401 400" fill="#202b48" xmlns="http://www.w3.org/2000/svg">
<path d="M400.013 99.5851V131.12L238.022 51.4523V350.207L367.991 283.817V215.768H270.043V185.892H400.013V300.415L206 400V0L400.013 99.5851Z"/>
<path d="M194.013 400L144.54 375L140.5 373V315L144.54 317V217H137V180.5H144.54V112.875V80.5L140.5 82V27.5L144.54 25.5L194.013 0V217V400Z"/>
<path d="M0 100.5L144.54 25.5V80L47.5332 127.5V180H144.54V217H47.5332V269.5L144.54 317V375L0 301V217V180V100.5Z"/>
</svg>